# xmcd
#
# Track frame offsets: 
#        150
#        19305
#        37090
#        60356
#        79756
#
# Disc length: 1377 seconds
#
# Revision: 0
# Processed by: cddbd v1.5.2PL0 Copyright (c) Steve Scherf et al.
# Submitted via: ExactAudioCopy v0.99pb5
#
DISCID=37055f05
DTITLE=Sambrose Automobile - The Lambroast Samwich EP
DYEAR=2011
DGENRE=R&B
TTITLE0=Million Miles Away
TTITLE1=Shake Like Thunder
TTITLE2=I'll Be Yours, If You Be Mine
TTITLE3=Darling In The Night
TTITLE4=All My Devotion
EXTD=
EXTT0=
EXTT1=
EXTT2=
EXTT3=
EXTT4=
PLAYORDER=
